<!DOCTYPE svg PUBLIC "-//W3C//DTD SVG 1.1//EN" "http://www.w3.org/Graphics/SVG/1.1/DTD/svg11.dtd">
<!-- Uploaded to: SVG Repo, www.svgrepo.com, Transformed by: SVG Repo Mixer Tools -->
<svg width="800px" height="800px" viewBox="-4.8 -4.8 57.60 57.60" fill="none" xmlns="http://www.w3.org/2000/svg">
<g id="SVGRepo_bgCarrier" stroke-width="0"/>
<g id="SVGRepo_tracerCarrier" stroke-linecap="round" stroke-linejoin="round" stroke="#CCCCCC" stroke-width="0.096"/>
<g id="SVGRepo_iconCarrier"> <rect width="48" height="48" fill="white" fill-opacity="0.01"/> <path d="M19 20C22.866 20 26 16.866 26 13C26 9.13401 22.866 6 19 6C15.134 6 12 9.13401 12 13C12 16.866 15.134 20 19 20Z" fill="#6dcdfd" stroke="#f16565" stroke-width="1.584" stroke-linejoin="round"/> <path fill-rule="evenodd" clip-rule="evenodd" d="M30 35H42H30Z" fill="#6dcdfd"/> <path d="M30 35H42" stroke="#f16565" stroke-width="1.584" stroke-linecap="round" stroke-linejoin="round"/> <path d="M27 28H18.8C14.3196 28 12.0794 28 10.3681 28.8719C8.86278 29.6389 7.63893 30.8628 6.87195 32.3681C6 34.0794 6 36.3196 6 40.8V42H27" stroke="#f16565" stroke-width="1.584" stroke-linecap="round" stroke-linejoin="round"/> </g>
</svg>