<svg width="195" height="56" viewBox="0 0 195 56" fill="none" xmlns="http://www.w3.org/2000/svg">
<path d="M10.4 31.4C8.34667 31.4 6.52 31.0533 4.92 30.36C3.32 29.64 2.05333 28.68 1.12 27.48C0.853333 27.1333 0.72 26.7867 0.72 26.44C0.72 25.8533 1 25.4133 1.56 25.12C1.8 24.9867 2.05333 24.92 2.32 24.92C2.77333 24.92 3.24 25.16 3.72 25.64C4.6 26.5733 5.57333 27.2533 6.64 27.68C7.70667 28.1067 8.93333 28.32 10.32 28.32C11.6 28.32 12.64 28.12 13.44 27.72C14.2667 27.2933 14.68 26.72 14.68 26C14.68 25.4667 14.52 25.0267 14.2 24.68C13.9067 24.3333 13.3867 24 12.64 23.68C11.8933 23.36 10.72 22.9333 9.12 22.4C6.42667 21.5467 4.52 20.6667 3.4 19.76C2.30667 18.8533 1.76 17.6667 1.76 16.2C1.76 14.6267 2.44 13.3733 3.8 12.44C5.18667 11.48 7.05333 11 9.4 11C11.1333 11 12.7333 11.2933 14.2 11.88C15.6933 12.44 16.8 13.2133 17.52 14.2C17.76 14.52 17.88 14.8533 17.88 15.2C17.88 15.6533 17.64 16.04 17.16 16.36C16.8133 16.5733 16.4667 16.68 16.12 16.68C15.5867 16.68 15.08 16.44 14.6 15.96C13.96 15.32 13.2133 14.8533 12.36 14.56C11.5333 14.24 10.5333 14.08 9.36 14.08C8.10667 14.08 7.14667 14.2667 6.48 14.64C5.84 15.0133 5.52 15.5467 5.52 16.24C5.52 16.7733 5.66667 17.2 5.96 17.52C6.25333 17.84 6.76 18.1467 7.48 18.44C8.2 18.7333 9.4 19.1467 11.08 19.68C12.9467 20.2667 14.4 20.8533 15.44 21.44C16.5067 22.0267 17.2667 22.68 17.72 23.4C18.1733 24.12 18.4 24.9867 18.4 26C18.4 27.6267 17.6667 28.9333 16.2 29.92C14.76 30.9067 12.8267 31.4 10.4 31.4ZM24.4138 31.4C23.8271 31.4 23.3738 31.24 23.0538 30.92C22.7604 30.5733 22.6138 30.1067 22.6138 29.52V2.52C22.6138 1.90667 22.7604 1.44 23.0538 1.12C23.3738 0.799998 23.8271 0.639997 24.4138 0.639997C25.0004 0.639997 25.4538 0.813331 25.7738 1.16C26.1204 1.48 26.2938 1.93333 26.2938 2.52V14.84C28.2938 12.28 30.9471 11 34.2538 11C36.8138 11 38.7871 11.7467 40.1738 13.24C41.5871 14.7067 42.2938 16.7867 42.2938 19.48V29.52C42.2938 30.1067 42.1204 30.5733 41.7738 30.92C41.4538 31.24 41.0138 31.4 40.4538 31.4C39.8671 31.4 39.4138 31.24 39.0938 30.92C38.7738 30.5733 38.6138 30.1067 38.6138 29.52V19.48C38.6138 17.6933 38.1871 16.3467 37.3338 15.44C36.5071 14.5333 35.2671 14.08 33.6138 14.08C31.3738 14.08 29.5871 14.7467 28.2538 16.08C26.9471 17.3867 26.2938 19.16 26.2938 21.4V29.52C26.2938 30.1067 26.1204 30.5733 25.7738 30.92C25.4538 31.24 25.0004 31.4 24.4138 31.4ZM57.2259 31.4C53.7593 31.4 51.0526 30.5067 49.1059 28.72C47.1859 26.9067 46.2259 24.4 46.2259 21.2C46.2259 18.0267 47.1726 15.5333 49.0659 13.72C50.9859 11.9067 53.6393 11 57.0259 11C59.1059 11 60.9459 11.3333 62.5459 12C64.1726 12.64 65.4393 13.56 66.3459 14.76C67.2526 15.9333 67.7059 17.28 67.7059 18.8C67.7059 19.9733 67.3593 20.88 66.6659 21.52C65.9993 22.16 65.0393 22.48 63.7859 22.48H49.9059C49.9059 24.3467 50.5326 25.8 51.7859 26.84C53.0659 27.8533 54.8793 28.36 57.2259 28.36C58.6126 28.36 59.8126 28.2133 60.8259 27.92C61.8659 27.6267 62.8393 27.1467 63.7459 26.48C64.4126 26.0267 64.9193 25.8 65.2659 25.8C65.5859 25.8 65.8793 25.9333 66.1459 26.2C66.5193 26.5733 66.7059 26.96 66.7059 27.36C66.7059 27.76 66.5193 28.1333 66.1459 28.48C63.9593 30.4267 60.9859 31.4 57.2259 31.4ZM62.6659 19.68C63.1459 19.68 63.4926 19.5867 63.7059 19.4C63.9193 19.2133 64.0259 18.88 64.0259 18.4C64.0259 17.12 63.3726 16.08 62.0659 15.28C60.7859 14.4533 59.1059 14.04 57.0259 14.04C54.8659 14.04 53.1459 14.5467 51.8659 15.56C50.6126 16.5733 49.9859 17.9467 49.9859 19.68H62.6659ZM73.5925 31.4C73.0058 31.4 72.5525 31.24 72.2325 30.92C71.9125 30.5733 71.7525 30.1067 71.7525 29.52V2.52C71.7525 1.93333 71.9125 1.48 72.2325 1.16C72.5525 0.813331 73.0058 0.639997 73.5925 0.639997C74.1792 0.639997 74.6325 0.813331 74.9525 1.16C75.2992 1.48 75.4725 1.93333 75.4725 2.52L75.5125 14.76C77.6458 12.2533 80.3925 11 83.7525 11C87.0325 11 89.6192 11.92 91.5125 13.76C93.4058 15.5733 94.3525 18.0533 94.3525 21.2C94.3525 24.4267 93.4192 26.9333 91.5525 28.72C89.6858 30.5067 87.0592 31.4 83.6725 31.4C81.9125 31.4 80.3658 31.0933 79.0325 30.48C77.6992 29.84 76.5125 28.8667 75.4725 27.56V29.52C75.4725 30.1067 75.2992 30.5733 74.9525 30.92C74.6325 31.24 74.1792 31.4 73.5925 31.4ZM83.2725 28.32C85.6725 28.32 87.4992 27.72 88.7525 26.52C90.0058 25.2933 90.6325 23.52 90.6325 21.2C90.6325 18.96 89.9792 17.2133 88.6725 15.96C87.3658 14.7067 85.5658 14.08 83.2725 14.08C81.7525 14.08 80.3925 14.3867 79.1925 15C78.0192 15.5867 77.0992 16.4267 76.4325 17.52C75.7925 18.5867 75.4725 19.8133 75.4725 21.2C75.4725 23.4133 76.1658 25.16 77.5525 26.44C78.9392 27.6933 80.8458 28.32 83.2725 28.32ZM106.032 31.4C103.446 31.4 101.392 30.8133 99.8722 29.64C98.3789 28.4667 97.6322 26.88 97.6322 24.88C97.6322 22.88 98.4189 21.2933 99.9922 20.12C101.592 18.9467 103.766 18.36 106.512 18.36C107.952 18.36 109.232 18.5467 110.352 18.92C111.499 19.2933 112.419 19.8 113.112 20.44V18.44C113.112 17 112.646 15.9067 111.712 15.16C110.806 14.3867 109.459 14 107.672 14C105.299 14 103.246 14.5467 101.512 15.64C101.006 15.9333 100.566 16.08 100.192 16.08C99.8455 16.08 99.4989 15.9333 99.1522 15.64C98.8589 15.3467 98.7122 15 98.7122 14.6C98.7122 14.1467 98.9389 13.7333 99.3922 13.36C100.352 12.64 101.566 12.0667 103.032 11.64C104.499 11.2133 106.032 11 107.632 11C110.539 11 112.806 11.6667 114.432 13C116.059 14.3067 116.872 16.1467 116.872 18.52V29.6C116.872 30.1867 116.712 30.64 116.392 30.96C116.099 31.2533 115.659 31.4 115.072 31.4C114.486 31.4 114.032 31.2533 113.712 30.96C113.392 30.64 113.232 30.2133 113.232 29.68V28.56C111.632 30.4533 109.232 31.4 106.032 31.4ZM106.672 28.56C108.619 28.56 110.179 28.2133 111.352 27.52C112.552 26.8 113.152 25.8667 113.152 24.72C113.152 23.6 112.579 22.7333 111.432 22.12C110.312 21.48 108.752 21.16 106.752 21.16C105.019 21.16 103.686 21.48 102.752 22.12C101.819 22.76 101.352 23.68 101.352 24.88C101.352 26.0533 101.806 26.96 102.712 27.6C103.646 28.24 104.966 28.56 106.672 28.56ZM123.636 30.96C122.916 30.96 122.303 30.72 121.796 30.24C121.29 29.7333 121.036 29.16 121.036 28.52C121.036 27.8 121.29 27.2 121.796 26.72C122.303 26.2133 122.916 25.96 123.636 25.96C124.356 25.96 124.97 26.2133 125.476 26.72C125.983 27.2267 126.236 27.8267 126.236 28.52C126.236 29.16 125.983 29.7333 125.476 30.24C124.97 30.72 124.356 30.96 123.636 30.96ZM131.578 31.2734C131.448 31.1172 131.409 30.9219 131.461 30.6875C131.539 30.4271 131.643 30.1797 131.773 29.9453C131.904 29.7109 132.034 29.4896 132.164 29.2812C132.32 29.0729 132.438 28.9167 132.516 28.8125C132.698 28.474 132.932 28.0052 133.219 27.4062C133.531 26.7812 133.831 26.1693 134.117 25.5703C134.404 24.9714 134.651 24.4505 134.859 24.0078C135.068 23.5391 135.172 23.3047 135.172 23.3047V22.9922C135.172 22.9922 135.003 22.7188 134.664 22.1719C134.352 21.625 133.961 20.974 133.492 20.2188C133.023 19.4635 132.542 18.6953 132.047 17.9141C131.578 17.1068 131.188 16.4427 130.875 15.9219C130.823 15.8177 130.732 15.6745 130.602 15.4922C130.471 15.3099 130.341 15.1276 130.211 14.9453C130.081 14.737 129.951 14.5547 129.82 14.3984C129.716 14.2422 129.651 14.138 129.625 14.0859C129.547 13.9818 129.43 13.7474 129.273 13.3828C129.117 12.9922 129.013 12.6276 128.961 12.2891C128.935 11.9245 129 11.651 129.156 11.4688C129.312 11.2865 129.664 11.3255 130.211 11.5859C130.602 11.7943 130.953 12.1198 131.266 12.5625C131.604 12.9792 131.904 13.4609 132.164 14.0078C132.451 14.5286 132.711 15.0495 132.945 15.5703C133.18 16.0911 133.401 16.5208 133.609 16.8594C133.714 17.0156 133.883 17.3021 134.117 17.7188C134.352 18.1094 134.599 18.5391 134.859 19.0078C135.12 19.4766 135.367 19.9193 135.602 20.3359C135.836 20.7266 136.005 21 136.109 21.1562C136.292 21.2604 136.539 21.1042 136.852 20.6875C137.164 20.2708 137.516 19.7109 137.906 19.0078C138.297 18.2786 138.701 17.4714 139.117 16.5859C139.56 15.6745 140.003 14.776 140.445 13.8906C140.888 13.0052 141.318 12.1849 141.734 11.4297C142.177 10.6745 142.581 10.1016 142.945 9.71094C143.336 9.32031 143.674 9.16406 143.961 9.24219C144.273 9.29427 144.521 9.6849 144.703 10.4141C144.729 10.4661 144.742 10.5703 144.742 10.7266C144.742 10.8568 144.729 10.9479 144.703 11C144.417 11.6771 144.13 12.237 143.844 12.6797C143.557 13.0964 143.245 13.526 142.906 13.9688C142.594 14.3854 142.255 14.8802 141.891 15.4531C141.526 16.026 141.135 16.7943 140.719 17.7578C140.328 18.513 139.898 19.2682 139.43 20.0234C138.987 20.7526 138.635 21.4948 138.375 22.25C138.115 22.9792 137.997 23.7083 138.023 24.4375C138.076 25.1667 138.401 25.8958 139 26.625C139.078 26.7552 139.195 26.9115 139.352 27.0938C139.534 27.276 139.703 27.4453 139.859 27.6016C140.016 27.7578 140.146 27.901 140.25 28.0312C140.38 28.1354 140.458 28.1875 140.484 28.1875H140.836C140.966 28.1875 141.083 28.0443 141.188 27.7578C141.318 27.4453 141.422 27.0807 141.5 26.6641C141.604 26.2214 141.708 25.7526 141.812 25.2578C141.917 24.763 142.034 24.3333 142.164 23.9688C142.294 23.5781 142.438 23.2917 142.594 23.1094C142.75 22.901 142.945 22.862 143.18 22.9922C143.18 23.1484 143.167 23.5 143.141 24.0469C143.115 24.5677 143.049 25.1667 142.945 25.8438C142.867 26.5208 142.75 27.224 142.594 27.9531C142.438 28.6562 142.242 29.2682 142.008 29.7891C141.773 30.3099 141.474 30.6745 141.109 30.8828C140.771 31.0911 140.367 31.013 139.898 30.6484C139.534 30.388 139.221 30.0625 138.961 29.6719C138.701 29.2812 138.44 28.8906 138.18 28.5C137.945 28.1094 137.698 27.7318 137.438 27.3672C137.177 26.9766 136.865 26.638 136.5 26.3516C136.344 26.4818 136.148 26.7552 135.914 27.1719C135.706 27.5885 135.484 28.0573 135.25 28.5781C135.016 29.099 134.755 29.6328 134.469 30.1797C134.182 30.7005 133.883 31.1172 133.57 31.4297C133.284 31.7422 132.971 31.9115 132.633 31.9375C132.294 31.9635 131.943 31.7422 131.578 31.2734ZM156.07 54.9844C155.185 54.5417 154.573 53.6302 154.234 52.25C153.922 50.8698 153.818 49.2552 153.922 47.4062C154.026 45.5573 154.312 43.6042 154.781 41.5469C155.276 39.4896 155.901 37.5625 156.656 35.7656C157.438 33.9688 158.323 32.4323 159.312 31.1562C160.328 29.9062 161.409 29.138 162.555 28.8516C162.581 28.6953 162.607 28.4479 162.633 28.1094C162.659 27.7448 162.685 27.3672 162.711 26.9766C162.737 26.5859 162.763 26.2214 162.789 25.8828C162.815 25.5182 162.828 25.2578 162.828 25.1016C162.854 24.5286 162.867 23.7995 162.867 22.9141C162.867 22.0026 162.867 21.1302 162.867 20.2969C162.867 19.4375 162.867 18.7083 162.867 18.1094C162.867 17.4844 162.854 17.1589 162.828 17.1328L162.555 16.8594C162.346 17.224 161.93 17.849 161.305 18.7344C160.68 19.6198 159.938 20.5833 159.078 21.625C158.219 22.6667 157.268 23.7083 156.227 24.75C155.185 25.7656 154.13 26.612 153.062 27.2891C151.995 27.9401 150.953 28.3177 149.938 28.4219C148.922 28.5 147.997 28.1224 147.164 27.2891C146.747 26.8984 146.461 26.2995 146.305 25.4922C146.174 24.6589 146.109 23.7474 146.109 22.7578C146.135 21.7422 146.214 20.6875 146.344 19.5938C146.5 18.474 146.669 17.4193 146.852 16.4297C147.034 15.4141 147.203 14.5156 147.359 13.7344C147.542 12.9271 147.672 12.3281 147.75 11.9375C147.88 11.625 148.076 11.4297 148.336 11.3516C148.622 11.2474 148.896 11.2344 149.156 11.3125C149.417 11.3646 149.625 11.5078 149.781 11.7422C149.964 11.9505 150.016 12.2109 149.938 12.5234C149.651 13.6172 149.391 14.6719 149.156 15.6875C148.948 16.7031 148.766 17.7188 148.609 18.7344C148.479 19.75 148.388 20.7786 148.336 21.8203C148.31 22.862 148.336 23.9557 148.414 25.1016C148.935 25.8047 149.573 26.1172 150.328 26.0391C151.083 25.9349 151.891 25.6094 152.75 25.0625C153.609 24.4896 154.482 23.7474 155.367 22.8359C156.253 21.9245 157.073 21 157.828 20.0625C158.583 19.125 159.234 18.2526 159.781 17.4453C160.354 16.612 160.758 16 160.992 15.6094C161.227 15.2188 161.409 14.776 161.539 14.2812C161.695 13.7865 161.852 13.3047 162.008 12.8359C162.19 12.3411 162.385 11.8724 162.594 11.4297C162.828 10.987 163.128 10.6354 163.492 10.375L164.703 11.5859V27.6016C164.833 27.6276 165.133 27.6146 165.602 27.5625C166.096 27.5104 166.526 27.4844 166.891 27.4844C167.255 27.4844 167.464 27.5625 167.516 27.7188C167.594 27.849 167.281 28.1224 166.578 28.5391C166.214 28.7474 165.849 28.9688 165.484 29.2031C165.146 29.4115 164.781 29.5938 164.391 29.75C164.156 31.9635 163.935 33.9036 163.727 35.5703C163.518 37.263 163.284 38.8776 163.023 40.4141C162.763 41.9505 162.451 43.526 162.086 45.1406C161.721 46.7552 161.266 48.6042 160.719 50.6875C160.51 51.1562 160.276 51.7031 160.016 52.3281C159.781 52.9792 159.482 53.5521 159.117 54.0469C158.779 54.5677 158.362 54.9323 157.867 55.1406C157.372 55.375 156.773 55.3229 156.07 54.9844ZM157.32 52.5234C157.581 52.7057 157.893 52.3672 158.258 51.5078C158.622 50.6484 158.987 49.4896 159.352 48.0312C159.742 46.599 160.107 44.9974 160.445 43.2266C160.81 41.4557 161.122 39.75 161.383 38.1094C161.669 36.4688 161.891 35.0234 162.047 33.7734C162.203 32.5234 162.268 31.6901 162.242 31.2734C161.07 32.2891 160.042 33.4609 159.156 34.7891C158.271 36.1432 157.542 37.5755 156.969 39.0859C156.422 40.6224 156.044 42.1849 155.836 43.7734C155.628 45.388 155.602 46.9766 155.758 48.5391C155.784 48.7734 155.823 49.0729 155.875 49.4375C155.953 49.8281 156.018 50.2057 156.07 50.5703C156.148 50.9349 156.214 51.2474 156.266 51.5078C156.318 51.7682 156.357 51.9115 156.383 51.9375L157.32 52.5234ZM174.664 29.0859C173.987 28.6172 173.57 28.1094 173.414 27.5625C173.258 26.9896 173.258 26.4036 173.414 25.8047C173.596 25.2057 173.883 24.5938 174.273 23.9688C174.664 23.3177 175.068 22.6797 175.484 22.0547C175.927 21.4297 176.318 20.8438 176.656 20.2969C177.021 19.724 177.242 19.1901 177.32 18.6953C177.164 18.6172 176.995 18.5781 176.812 18.5781C176.63 18.5781 176.435 18.5781 176.227 18.5781C176.044 18.5781 175.862 18.5651 175.68 18.5391C175.497 18.513 175.341 18.4219 175.211 18.2656C174.898 17.9271 174.742 17.5625 174.742 17.1719C174.768 16.7812 174.977 16.4297 175.367 16.1172C175.628 15.9349 175.901 15.8698 176.188 15.9219C176.474 15.974 176.76 16.0781 177.047 16.2344C177.359 16.3646 177.659 16.4948 177.945 16.625C178.258 16.7292 178.557 16.7552 178.844 16.7031C178.974 16.6771 179.221 16.4948 179.586 16.1562C179.977 15.7917 180.406 15.349 180.875 14.8281C181.37 14.2812 181.878 13.6953 182.398 13.0703C182.945 12.4453 183.44 11.8594 183.883 11.3125C184.352 10.7396 184.755 10.2448 185.094 9.82812C185.432 9.38542 185.654 9.09896 185.758 8.96875C184.846 8.47396 183.766 8.17448 182.516 8.07031C181.292 7.9401 180.016 7.91406 178.688 7.99219C177.385 8.07031 176.083 8.20052 174.781 8.38281C173.505 8.5651 172.359 8.69531 171.344 8.77344C170.797 8.82552 170.445 8.76042 170.289 8.57812C170.159 8.39583 170.159 8.1875 170.289 7.95312C170.445 7.69271 170.68 7.44531 170.992 7.21094C171.305 6.97656 171.643 6.83333 172.008 6.78125C173.18 6.625 174.339 6.53385 175.484 6.50781C176.656 6.45573 177.815 6.45573 178.961 6.50781C180.133 6.53385 181.292 6.58594 182.438 6.66406C183.609 6.74219 184.781 6.80729 185.953 6.85938C187.203 6.88542 187.958 7.08073 188.219 7.44531C188.505 7.78385 188.492 8.23958 188.18 8.8125C187.867 9.35938 187.346 9.98438 186.617 10.6875C185.888 11.3906 185.146 12.1068 184.391 12.8359C183.635 13.5651 182.958 14.2943 182.359 15.0234C181.76 15.7266 181.435 16.3516 181.383 16.8984C181.878 17.2109 182.685 17.3932 183.805 17.4453C184.924 17.4714 186.109 17.4453 187.359 17.3672C188.609 17.263 189.794 17.1328 190.914 16.9766C192.034 16.8203 192.854 16.7031 193.375 16.625C193.609 16.625 193.805 16.7161 193.961 16.8984C194.117 17.0547 194.221 17.25 194.273 17.4844C194.326 17.6927 194.326 17.9141 194.273 18.1484C194.221 18.3568 194.078 18.526 193.844 18.6562C193.323 18.9427 192.698 19.151 191.969 19.2812C191.24 19.3854 190.458 19.4505 189.625 19.4766C188.792 19.5026 187.906 19.4896 186.969 19.4375C186.057 19.3854 185.159 19.3333 184.273 19.2812C183.388 19.2031 182.529 19.151 181.695 19.125C180.888 19.0729 180.159 19.0729 179.508 19.125C177.893 21.026 176.826 22.6016 176.305 23.8516C175.784 25.0755 175.654 26.0391 175.914 26.7422C176.201 27.4193 176.786 27.875 177.672 28.1094C178.557 28.3177 179.599 28.3568 180.797 28.2266C181.995 28.0964 183.258 27.8359 184.586 27.4453C185.914 27.0286 187.138 26.5469 188.258 26C189.404 25.4271 190.367 24.8281 191.148 24.2031C191.956 23.5521 192.424 22.9271 192.555 22.3281C193.049 22.1198 193.336 22.1719 193.414 22.4844C193.518 22.7708 193.518 23.1484 193.414 23.6172C193.336 24.0599 193.206 24.5156 193.023 24.9844C192.841 25.4271 192.711 25.7005 192.633 25.8047C192.112 26.4036 191.396 26.9635 190.484 27.4844C189.573 27.9792 188.557 28.4219 187.438 28.8125C186.318 29.2031 185.133 29.5156 183.883 29.75C182.633 29.9844 181.422 30.1276 180.25 30.1797C179.104 30.2057 178.036 30.1406 177.047 29.9844C176.083 29.8021 175.289 29.5026 174.664 29.0859Z" fill="black"/>
</svg>
